HIERARCHY
ROOT Hips
{
	OFFSET 0.000000 0.000000 0.000000
	CHANNELS 6 Xposition Yposition Zposition Zrotation Yrotation Xrotation 
	JOINT LHipJoint
	{
		OFFSET 0.000000 0.000000 0.000000
		CHANNELS 3 Zrotation Yrotation Xrotation
		JOINT LeftUpLeg
		{
			OFFSET 1.363060 -1.794630 0.839290
			CHANNELS 3 Zrotation Yrotation Xrotation
			JOINT LeftLeg
			{
				OFFSET 2.448110 -6.726130 0.000000
				CHANNELS 3 Zrotation Yrotation Xrotation
				JOINT LeftFoot
				{
					OFFSET 2.562200 -7.039590 0.000000
					CHANNELS 3 Zrotation Yrotation Xrotation
					JOINT LeftToeBase
					{
						OFFSET 0.157640 -0.433110 2.322550
						CHANNELS 3 Zrotation Yrotation Xrotation
						End Site
						{
							OFFSET 0.000000 0.000000 0.000000
						}
					}
				}
			}
		}
	}
	JOINT RHipJoint
	{
		OFFSET 0.000000 0.000000 0.000000
		CHANNELS 3 Zrotation Yrotation Xrotation
		JOINT RightUpLeg
		{
			OFFSET -1.305520 -1.794630 0.839290
			CHANNELS 3 Zrotation Yrotation Xrotation
			JOINT RightLeg
			{
				OFFSET -2.542530 -6.985550 0.000000
				CHANNELS 3 Zrotation Yrotation Xrotation
				JOINT RightFoot
				{
					OFFSET -2.568260 -7.056230 0.000000
					CHANNELS 3 Zrotation Yrotation Xrotation
					JOINT RightToeBase
					{
						OFFSET -0.164730 -0.452590 2.363150
						CHANNELS 3 Zrotation Yrotation Xrotation
						End Site
						{
							OFFSET 0.000000 0.000000 0.000000
						}
					}
				}
			}
		}
	}
	JOINT LowerBack
	{
		OFFSET 0.000000 0.000000 0.000000
		CHANNELS 3 Zrotation Yrotation Xrotation
		JOINT Spine
		{
			OFFSET 0.028270 2.035590 -0.193380
			CHANNELS 3 Zrotation Yrotation Xrotation
			JOINT Spine1
			{
				OFFSET 0.056720 2.048850 -0.042750
				CHANNELS 3 Zrotation Yrotation Xrotation
				JOINT Neck
				{
					OFFSET 0.000000 0.000000 0.000000
					CHANNELS 3 Zrotation Yrotation Xrotation
					JOINT Neck1
					{
						OFFSET -0.054170 1.746240 0.172020
						CHANNELS 3 Zrotation Yrotation Xrotation
						JOINT Head
						{
							OFFSET 0.104070 1.761360 -0.123970
							CHANNELS 3 Zrotation Yrotation Xrotation
							End Site
							{
								OFFSET 0.000000 0.000000 0.000000
							}
						}
					}
				}
				JOINT LeftShoulder
				{
					OFFSET 0.000000 0.000000 0.000000
					CHANNELS 3 Zrotation Yrotation Xrotation
					JOINT LeftArm
					{
						OFFSET 3.362410 1.200890 -0.311210
						CHANNELS 3 Zrotation Yrotation Xrotation
						JOINT LeftForeArm
						{
							OFFSET 4.983000 -0.000000 -0.000000
							CHANNELS 3 Zrotation Yrotation Xrotation
							JOINT LeftHand
							{
								OFFSET 3.483560 -0.000000 -0.000000
								CHANNELS 3 Zrotation Yrotation Xrotation
								JOINT LeftFingerBase
								{
									OFFSET 0.000000 0.000000 0.000000
									CHANNELS 3 Zrotation Yrotation Xrotation
									JOINT LeftHandIndex1
									{
										OFFSET 0.715260 -0.000000 -0.000000
										CHANNELS 3 Zrotation Yrotation Xrotation
										End Site
										{
											OFFSET 0.000000 0.000000 0.000000
										}
									}
								}
								JOINT LThumb
								{
									OFFSET 0.000000 0.000000 0.000000
									CHANNELS 3 Zrotation Yrotation Xrotation
									End Site
									{
										OFFSET 0.000000 0.000000 0.000000
									}
								}
							}
						}
					}
				}
				JOINT RightShoulder
				{
					OFFSET 0.000000 0.000000 0.000000
					CHANNELS 3 Zrotation Yrotation Xrotation
					JOINT RightArm
					{
						OFFSET -3.136600 1.374050 -0.404650
						CHANNELS 3 Zrotation Yrotation Xrotation
						JOINT RightForeArm
						{
							OFFSET -5.241900 -0.000000 -0.000000
							CHANNELS 3 Zrotation Yrotation Xrotation
							JOINT RightHand
							{
								OFFSET -3.444170 -0.000000 -0.000000
								CHANNELS 3 Zrotation Yrotation Xrotation
								JOINT RightFingerBase
								{
									OFFSET 0.000000 0.000000 0.000000
									CHANNELS 3 Zrotation Yrotation Xrotation
									JOINT RightHandIndex1
									{
										OFFSET -0.622530 -0.000000 -0.000000
										CHANNELS 3 Zrotation Yrotation Xrotation
										End Site
										{
											OFFSET 0.000000 0.000000 0.000000
										}
									}
								}
								JOINT RThumb
								{
									OFFSET 0.000000 0.000000 0.000000
									CHANNELS 3 Zrotation Yrotation Xrotation
									End Site
									{
										OFFSET 0.000000 0.000000 0.000000
									}
								}
							}
						}
					}
				}
			}
		}
	}
}
MOTION
Frames: 7
Frame Time: 0.008333
-1.223323 16.519907 1.566461 13.184819 36.856985 22.338829 -10.128700 4.471965 -2.069512 -6.156780 20.214012 -16.375689 -0.263902 2.438778 47.635659 1.532284 1.428487 28.451503 0.020700 -0.000001 -69.085700 9.193949 -0.458098 3.205223 20.837422 1.873543 -29.031682 2.541949 1.845520 10.395231 -4.965734 -11.774912 -28.757773 -175.391900 -0.000000 -22.600300 -1.624438 -4.415363 -2.404570 -0.756553 -4.428636 -3.058235 -6.168297 -4.521099 1.376478 8.098978 -8.458975 -7.514950 -3.713604 -0.283357 0.020185 0.000000 0.000000 0.000000 -4.618661 5.654121 1.982450 -41.584521 -0.370400 1.387540 -1.768086 -60.523486 -0.019527 11.252224 0.858824 0.077481 -0.190610 0.102373 -0.000000 0.000000 0.000000 0.000000 0.000000 0.000000 0.000000 15.774623 -7.997217 1.306447 59.903084 -4.177504 -16.719387 3.910579 5.705012 0.003992 -3.818977 2.669606 -0.093639 0.140418 -0.043124 -0.000000 0.000000 0.000000 0.000000 0.000000 0.000000 0.000000 
-1.117894 16.504563 1.687451 12.380666 35.517746 22.068380 -10.206312 4.309736 -1.950478 -5.892942 19.584946 -18.069504 -0.136454 2.528197 50.309217 1.626708 2.270114 28.234694 0.444600 -0.000000 -64.456000 9.034001 -0.614796 3.288356 21.484993 2.366557 -29.125316 2.725627 1.698290 11.742539 -4.748435 -10.639671 -29.016033 -175.612001 -0.000000 -22.744200 -1.269639 -4.194910 -2.642581 -0.709262 -4.240445 -3.125398 -6.215272 -4.336396 1.345893 8.148639 -8.018123 -7.482301 -3.748735 -0.286549 0.028383 0.000000 0.000000 0.000000 -4.638576 5.857141 1.994986 -42.242386 0.074560 1.647741 -1.834454 -59.548687 -0.017918 11.193641 0.904535 0.082447 -0.188190 0.093670 -0.000000 0.000000 0.000000 0.000000 0.000000 0.000000 0.000000 15.874619 -7.423625 1.343585 59.960807 -3.053803 -16.613256 3.896255 5.584246 0.003875 -3.850260 2.745062 -0.097030 0.139035 -0.046574 -0.000000 0.000000 0.000000 0.000000 0.000000 0.000000 0.000000 
-1.019704 16.493027 1.808397 11.613033 34.082559 21.873008 -10.249011 4.132252 -1.832076 -5.727429 18.817920 -19.807293 -0.007436 2.620939 52.809851 1.723771 3.629064 27.455369 1.136900 -0.000000 -60.027900 8.900977 -0.746212 3.396835 22.027532 2.984728 -29.132857 2.876836 1.570951 12.895487 -4.545537 -9.604712 -29.205450 -175.830599 -0.000000 -22.964100 -0.988544 -3.975686 -2.879714 -0.678095 -4.049496 -3.191180 -6.266202 -4.149284 1.313490 8.227388 -7.516222 -7.442121 -3.783082 -0.289701 0.037846 0.000000 0.000000 0.000000 -4.598697 6.078593 2.014000 -42.963319 0.565225 1.934619 -1.908400 -58.456655 -0.016245 11.092686 0.960678 0.088107 -0.185442 0.084699 -0.000000 0.000000 0.000000 0.000000 0.000000 0.000000 0.000000 15.991160 -6.780518 1.384628 60.123506 -1.799971 -16.554637 3.871996 5.458793 0.003818 -3.872795 2.873081 -0.102218 0.137105 -0.050664 -0.000000 0.000000 0.000000 0.000000 0.000000 0.000000 0.000000 
-0.928909 16.485507 1.929722 10.901274 32.576863 21.752740 -10.256897 3.940911 -1.708040 -5.638150 17.890953 -21.551522 0.122752 2.710631 55.081207 1.827421 5.382511 26.177444 1.994600 0.000000 -55.916000 8.799847 -0.845694 3.523426 22.446453 3.706857 -29.014372 2.990952 1.472212 13.798971 -4.366038 -8.716576 -29.322880 -176.032100 0.000000 -23.283100 -0.791009 -3.765297 -3.111872 -0.664290 -3.862289 -3.254212 -6.320185 -3.966283 1.280670 8.332155 -6.983552 -7.396775 -3.816227 -0.292763 0.048034 0.000000 0.000000 0.000000 -4.510163 6.298057 2.039987 -43.722498 1.114307 2.248289 -1.989686 -57.259766 -0.014507 10.926786 1.030221 0.094359 -0.182237 0.075427 -0.000000 0.000000 0.000000 0.000000 0.000000 0.000000 0.000000 16.126436 -6.103114 1.427980 60.391732 -0.411056 -16.466179 3.838147 5.353734 0.003813 -3.880353 3.045041 -0.108505 0.134652 -0.055215 -0.000000 0.000000 0.000000 0.000000 0.000000 0.000000 0.000000 
-0.845409 16.482061 2.051877 10.260948 31.028993 21.701927 -10.231060 3.737669 -1.569135 -5.599213 16.781134 -23.259735 0.250443 2.788675 57.060434 1.943133 7.396983 24.515228 2.908101 -0.000000 -52.465500 8.733519 -0.909724 3.657937 22.732765 4.496516 -28.741130 3.068134 1.408080 14.417193 -4.212527 -7.991050 -29.368781 -176.208500 -0.000000 -23.710400 -0.681686 -3.569660 -3.336308 -0.668118 -3.683947 -3.314070 -6.375975 -3.792591 1.246698 8.454624 -6.412217 -7.341982 -3.848643 -0.295796 0.060017 0.000000 0.000000 0.000000 -4.385365 6.522877 2.076180 -44.496767 1.685303 2.607684 -2.081413 -55.939247 -0.012732 10.676527 1.113591 0.101006 -0.178690 0.065982 -0.000000 0.000000 0.000000 0.000000 0.000000 0.000000 0.000000 16.275239 -5.385506 1.469332 60.774913 1.070195 -16.408909 3.796092 5.291800 0.003892 -3.838462 3.266783 -0.115087 0.131553 -0.060283 -0.000000 0.000000 0.000000 0.000000 0.000000 0.000000 0.000000 
-0.768696 16.482620 2.175295 9.699549 29.467710 21.711276 -10.174540 3.525716 -1.407152 -5.578670 15.478734 -24.900106 0.370115 2.848780 58.704860 2.071033 9.516372 22.553333 3.764600 0.000000 -49.522700 8.701560 -0.938696 3.791697 22.888466 5.315924 -28.299076 3.112150 1.382096 14.729383 -4.082801 -7.420451 -29.342491 -176.358700 0.000000 -24.239700 -0.657543 -3.392433 -3.552839 -0.688443 -3.517920 -3.370661 -6.432309 -3.631651 1.211988 8.586964 -5.824313 -7.278163 -3.880524 -0.298819 0.073809 0.000000 0.000000 0.000000 -4.241105 6.740668 2.122176 -45.265487 2.272099 3.020897 -2.184374 -54.501255 -0.010951 10.321801 1.213388 0.107748 -0.174809 0.056365 -0.000000 0.000000 0.000000 0.000000 0.000000 0.000000 0.000000 16.435836 -4.652688 1.505817 61.268478 2.622852 -16.323620 3.748247 5.305780 0.004058 -3.727204 3.522801 -0.120567 0.127826 -0.065669 0.000000 0.000000 0.000000 0.000000 0.000000 0.000000 0.000000 
-0.697974 16.487042 2.300465 9.221504 27.918449 21.772125 -10.090797 3.308658 -1.213491 -5.548098 13.979030 -26.446079 0.475947 2.884994 59.974045 2.210065 11.606377 20.408025 4.482400 0.000000 -47.202100 8.702438 -0.935755 3.916662 22.921679 6.126456 -27.687805 3.128848 1.394535 14.733386 -3.969742 -6.974891 -29.240423 -176.489600 -0.000000 -24.845100 -0.712270 -3.235087 -3.763380 -0.723668 -3.365800 -3.424071 -6.488057 -3.484967 1.177981 8.722303 -5.251459 -7.208096 -3.912093 -0.301846 0.088851 0.000000 0.000000 0.000000 -4.094868 6.937546 2.175595 -46.010829 2.871914 3.493495 -2.298581 -52.959533 -0.009195 9.845879 1.332683 0.114085 -0.170621 0.046548 -0.000000 0.000000 0.000000 0.000000 0.000000 0.000000 0.000000 16.609146 -3.938827 1.534929 61.860909 4.231177 -16.108776 3.698001 5.430674 0.004306 -3.532184 3.789674 -0.122945 0.123564 -0.071092 0.000000 0.000000 0.000000 0.000000 0.000000 0.000000 0.000000 
